{
   "accessors" : [
      {
         "bufferView" : 0,
         "byteOffset" : 0,
         "componentType" : 5123,
         "count" : 4026,
         "max" : [ 4025 ],
         "min" : [ 0 ],
         "name" : "buffer-0-accessor-indices-buffer-0-mesh-0",
         "type" : "SCALAR"
      },
      {
         "bufferView" : 2,
         "byteOffset" : 0,
         "componentType" : 5126,
         "count" : 4026,
         "max" : [ 26.18158531188965, 25.41706085205078, 19.52473640441895 ],
         "min" : [ -22.65602874755859, 0, -27.08350563049316 ],
         "name" : "buffer-0-accessor-position-buffer-0-mesh-0",
         "type" : "VEC3"
      },
      {
         "bufferView" : 2,
         "byteOffset" : 48312,
         "componentType" : 5126,
         "count" : 4026,
         "max" : [ 0.9978640079498291, 0.999023973941803, 0.9993510246276855 ],
         "min" : [ -0.9978489875793457, -0.9995719790458679, -0.9917950034141541 ],
         "name" : "buffer-0-accessor-normal-buffer-0-mesh-0",
         "type" : "VEC3"
      },
      {
         "bufferView" : 1,
         "byteOffset" : 0,
         "componentType" : 5126,
         "count" : 4026,
         "max" : [ 0.9971429705619812, 0 ],
         "min" : [ 0, -0.9917140007019043 ],
         "name" : "buffer-0-accessor-texcoord-buffer-0-mesh-0",
         "type" : "VEC2"
      },
      {
         "bufferView" : 3,
         "byteOffset" : 0,
         "componentType" : 5126,
         "count" : 0,
         "max" : [ 0, 0, 0, 0 ],
         "min" : [ 0, 0, 0, 0 ],
         "name" : "buffer-0-accessor-color-buffer-0-mesh-0",
         "type" : "VEC4"
      },
      {
         "bufferView" : 0,
         "byteOffset" : 8052,
         "componentType" : 5123,
         "count" : 1188,
         "max" : [ 1187 ],
         "min" : [ 0 ],
         "name" : "buffer-0-accessor-indices-buffer-0-mesh-0",
         "type" : "SCALAR"
      },
      {
         "bufferView" : 2,
         "byteOffset" : 96624,
         "componentType" : 5126,
         "count" : 1188,
         "max" : [ 29.51831245422363, 19.33901596069336, 23.9804573059082 ],
         "min" : [ -25.27072906494141, 0, -9.16081428527832 ],
         "name" : "buffer-0-accessor-position-buffer-0-mesh-0",
         "type" : "VEC3"
      },
      {
         "bufferView" : 2,
         "byteOffset" : 110880,
         "componentType" : 5126,
         "count" : 1188,
         "max" : [ 0.9982190132141113, 0.9946539998054504, 0.9766780138015747 ],
         "min" : [ -0.9997990131378174, -0.9939110279083252, -0.9840149879455566 ],
         "name" : "buffer-0-accessor-normal-buffer-0-mesh-0",
         "type" : "VEC3"
      },
      {
         "bufferView" : 1,
         "byteOffset" : 32208,
         "componentType" : 5126,
         "count" : 1188,
         "max" : [ 0.9910569787025452, 0 ],
         "min" : [ 0, -0.9995750188827515 ],
         "name" : "buffer-0-accessor-texcoord-buffer-0-mesh-0",
         "type" : "VEC2"
      },
      {
         "bufferView" : 3,
         "byteOffset" : 0,
         "componentType" : 5126,
         "count" : 0,
         "max" : [ 0, 0, 0, 0 ],
         "min" : [ 0, 0, 0, 0 ],
         "name" : "buffer-0-accessor-color-buffer-0-mesh-0",
         "type" : "VEC4"
      }
   ],
   "asset" : {
      "extras" : {
         "GOOGLE_processor_version" : 294144208
      },
      "generator" : "Obj2GltfConverter",
      "version" : "2.0"
   },
   "bufferViews" : [
      {
         "buffer" : 0,
         "byteLength" : 10428,
         "byteOffset" : 0,
         "byteStride" : 0,
         "name" : "buffer-0-bufferview-ushort",
         "target" : 34963
      },
      {
         "buffer" : 0,
         "byteLength" : 41712,
         "byteOffset" : 10432,
         "byteStride" : 8,
         "name" : "buffer-0-bufferview-vec2",
         "target" : 34962
      },
      {
         "buffer" : 0,
         "byteLength" : 125136,
         "byteOffset" : 52152,
         "byteStride" : 12,
         "name" : "buffer-0-bufferview-vec3",
         "target" : 34962
      },
      {
         "buffer" : 0,
         "byteLength" : 1,
         "byteOffset" : 0,
         "name" : "buffer-0-bufferview-vec4"
      }
   ],
   "buffers" : [
      {
         "byteLength" : 177296,
         "name" : "buffer-0",
         "uri" : "Nebulas.bin"
      }
   ],
   "cameras" : [
      {
         "perspective" : {
            "yfov" : 0.7853981633974483,
            "znear" : 0.1000000014901161
         },
         "type" : "perspective"
      }
   ],
   "extensions" : {
      "KHR_lights_punctual" : {
         "lights" : [
            {
               "color" : [ 1, 0.9333333333333333, 0.8666666666666667 ],
               "intensity" : 0.25,
               "name" : "headLight",
               "type" : "directional"
            },
            {
               "color" : [ 1, 0.9333333333333333, 0.8666666666666667 ],
               "intensity" : 0.324999988079071,
               "name" : "keyLight",
               "type" : "directional"
            }
         ]
      }
   },
   "extensionsUsed" : [ "GOOGLE_backgrounds", "GOOGLE_camera_settings", "KHR_lights_punctual" ],
   "extras" : {
      "GOOGLE_initial_camera_motion" : {
         "motionPath" : "FULL_ROTATION"
      },
      "GOOGLE_lighting_rig" : {
         "disableShadows" : false
      }
   },
   "images" : [
      {
         "mimeType" : "image/png",
         "name" : "Nebulas_Mat-image",
         "uri" : "Nebulas_BaseColor.png"
      },
      {
         "mimeType" : "image/png",
         "name" : "Nebulas_Transp_Mat-image",
         "uri" : "Nebulas_BaseColor.png"
      }
   ],
   "materials" : [
      {
         "alphaMode" : "BLEND",
         "doubleSided" : true,
         "name" : "Nebulas_Mat",
         "pbrMetallicRoughness" : {
            "baseColorFactor" : [ 1, 1, 1, 1 ],
            "baseColorTexture" : {
               "index" : 0,
               "texCoord" : 0
            },
            "metallicFactor" : 0,
            "roughnessFactor" : 0.9699476628648295
         }
      },
      {
         "alphaMode" : "BLEND",
         "doubleSided" : true,
         "name" : "Nebulas_Transp_Mat",
         "pbrMetallicRoughness" : {
            "baseColorFactor" : [ 1, 1, 1, 1 ],
            "baseColorTexture" : {
               "index" : 1,
               "texCoord" : 0
            },
            "metallicFactor" : 0,
            "roughnessFactor" : 0.9699476628648295
         }
      }
   ],
   "meshes" : [
      {
         "name" : "buffer-0-mesh-0",
         "primitives" : [
            {
               "attributes" : {
                  "NORMAL" : 2,
                  "POSITION" : 1,
                  "TEXCOORD_0" : 3
               },
               "indices" : 0,
               "material" : 0,
               "mode" : 4
            },
            {
               "attributes" : {
                  "NORMAL" : 7,
                  "POSITION" : 6,
                  "TEXCOORD_0" : 8
               },
               "indices" : 5,
               "material" : 1,
               "mode" : 4
            }
         ]
      }
   ],
   "nodes" : [
      {
         "mesh" : 0,
         "name" : "node-0"
      },
      {
         "children" : [ 2 ]
      },
      {
         "children" : [ 3 ],
         "extras" : {
            "isTransformNode" : 1
         },
         "translation" : [ 3.242863833149869, 13.35591438540973, 1.44011711807444 ]
      },
      {
         "children" : [ 0 ],
         "translation" : [ -3.242863833149869, -13.35591438540973, -1.44011711807444 ]
      },
      {
         "camera" : 0,
         "children" : [ 5 ],
         "rotation" : [
            -0.221924054279278,
            -0.2518950318538157,
            -0.05946428056213492,
            0.9400864887853888
         ],
         "translation" : [ -36.07369170886894, 52.67803142651266, 69.54941802381082 ]
      },
      {
         "extensions" : {
            "KHR_lights_punctual" : {
               "light" : 0
            }
         },
         "extras" : {
            "isHeadLight" : 1
         },
         "name" : "headLightNode",
         "translation" : [ -36.5916763143841, 18.29583815719205, 18.29583815719205 ]
      },
      {
         "extensions" : {
            "KHR_lights_punctual" : {
               "light" : 1
            }
         },
         "extras" : {
            "isKeyLight" : 1
         },
         "name" : "keyLightNode",
         "rotation" : [ -0.7505326882858236, -0.3752663441429118, 0, 0.5439447166468927 ],
         "scale" : [ 0, 0, 36.95759307752795 ],
         "translation" : [ -35.70866826852211, 85.83403925130544, -36.19593505380323 ]
      }
   ],
   "samplers" : [
      {
         "name" : "Nebulas_Mat-sampler",
         "wrapS" : 10497,
         "wrapT" : 10497
      },
      {
         "name" : "Nebulas_Transp_Mat-sampler",
         "wrapS" : 10497,
         "wrapT" : 10497
      }
   ],
   "scene" : 0,
   "scenes" : [
      {
         "extensions" : {
            "GOOGLE_backgrounds" : {
               "color" : [ 1, 0.7568627450980392, 0.02745098039215686 ]
            },
            "GOOGLE_camera_settings" : {}
         },
         "extras" : {
            "GOOGLE_camera_index" : {
               "cameraIndex" : 0,
               "nodeIndex" : 4
            },
            "GOOGLE_geometry_data" : {
               "stats" : {
                  "centroid" : [ 1.248924809005837, 11.91885309624955, 0.7616580237247232 ],
                  "radius" : 36.5916763143841,
                  "stdev" : 18.2101352837492
               },
               "visualCenterPoint" : [ 3.242863833149869, 13.35591438540973, 1.44011711807444 ]
            },
            "GOOGLE_hemi_light" : {
               "groundColor" : [ 1, 0.7568627450980392, 0.02745098039215686 ]
            }
         },
         "name" : "scene-0",
         "nodes" : [ 1, 4, 6 ]
      }
   ],
   "textures" : [
      {
         "name" : "Nebulas_Mat-texture",
         "sampler" : 0,
         "source" : 0
      },
      {
         "name" : "Nebulas_Transp_Mat-texture",
         "sampler" : 1,
         "source" : 1
      }
   ]
}
